HIERARCHY
ROOT Hips
{
    OFFSET 0.000000 0.000000 0.000000
    CHANNELS 6 Xposition Yposition Zposition Zrotation Xrotation Yrotation
    JOINT Spine
    {
        OFFSET -0.000000 7.305680 0.000000
        CHANNELS 3 Zrotation Xrotation Yrotation
        JOINT Spine1
        {
            OFFSET -0.000000 20.356600 0.000000
            CHANNELS 3 Zrotation Xrotation Yrotation
            JOINT Neck
            {
                OFFSET -0.000000 22.138500 0.000000
                CHANNELS 3 Zrotation Xrotation Yrotation
                JOINT Head
                {
                    OFFSET -0.000000 13.809501 1.781870
                    CHANNELS 3 Zrotation Xrotation Yrotation
                    End Site
                    {
                        OFFSET -0.000000 17.818779 0.000000
                    }
                }
            }
            JOINT LeftShoulder
            {
                OFFSET 3.599130 17.990000 0.023591
                CHANNELS 3 Zrotation Xrotation Yrotation
                JOINT LeftArm
                {
                    OFFSET 12.560999 0.000000 0.000000
                    CHANNELS 3 Zrotation Xrotation Yrotation
                    JOINT LeftForeArm
                    {
                        OFFSET 22.903299 0.000000 0.000000
                        CHANNELS 3 Zrotation Xrotation Yrotation
                        JOINT LeftHand
                        {
                            OFFSET 21.865299 0.000000 0.000000
                            CHANNELS 3 Zrotation Xrotation Yrotation
                            JOINT LeftHandThumb1
                            {
                                OFFSET 1.853710 -2.106480 2.949080
                                CHANNELS 3 Zrotation Xrotation Yrotation
                                JOINT LeftHandThumb2
                                {
                                    OFFSET 2.049150 0.000000 1.336400
                                    CHANNELS 3 Zrotation Xrotation Yrotation
                                    JOINT LeftHandThumb3
                                    {
                                        OFFSET 2.672810 0.000000 0.000000
                                        CHANNELS 3 Zrotation Xrotation Yrotation
                                        End Site
                                        {
                                            OFFSET 2.381310 0.000000 0.000000
                                        }
                                    }
                                }
                            }
                            JOINT LeftHandIndex1
                            {
                                OFFSET 7.583340 0.000000 2.949080
                                CHANNELS 3 Zrotation Xrotation Yrotation
                                JOINT LeftHandIndex2
                                {
                                    OFFSET 4.454680 0.000000 0.000000
                                    CHANNELS 3 Zrotation Xrotation Yrotation
                                    JOINT LeftHandIndex3
                                    {
                                        OFFSET 2.227340 0.000000 0.000000
                                        CHANNELS 3 Zrotation Xrotation Yrotation
                                        End Site
                                        {
                                            OFFSET 1.984424 0.000000 0.000000
                                        }
                                    }
                                }
                            }
                            JOINT LeftHandMiddle1
                            {
                                OFFSET 7.583340 0.000000 0.977409
                                CHANNELS 3 Zrotation Xrotation Yrotation
                                JOINT LeftHandMiddle2
                                {
                                    OFFSET 4.900150 0.000000 0.000000
                                    CHANNELS 3 Zrotation Xrotation Yrotation
                                    JOINT LeftHandMiddle3
                                    {
                                        OFFSET 2.672810 0.000000 0.000000
                                        CHANNELS 3 Zrotation Xrotation Yrotation
                                        End Site
                                        {
                                            OFFSET 2.381310 0.000000 0.000000
                                        }
                                    }
                                }
                            }
                            JOINT LeftHandRing1
                            {
                                OFFSET 7.162050 0.000000 -0.977409
                                CHANNELS 3 Zrotation Xrotation Yrotation
                                JOINT LeftHandRing2
                                {
                                    OFFSET 4.454680 0.000000 0.000000
                                    CHANNELS 3 Zrotation Xrotation Yrotation
                                    JOINT LeftHandRing3
                                    {
                                        OFFSET 2.227340 0.000000 0.000000
                                        CHANNELS 3 Zrotation Xrotation Yrotation
                                        End Site
                                        {
                                            OFFSET 1.984424 0.000000 0.000000
                                        }
                                    }
                                }
                            }
                            JOINT LeftHandPinky1
                            {
                                OFFSET 6.740750 0.000000 -2.949080
                                CHANNELS 3 Zrotation Xrotation Yrotation
                                JOINT LeftHandPinky2
                                {
                                    OFFSET 3.563750 0.000000 0.000000
                                    CHANNELS 3 Zrotation Xrotation Yrotation
                                    JOINT LeftHandPinky3
                                    {
                                        OFFSET 1.781870 0.000000 0.000000
                                        CHANNELS 3 Zrotation Xrotation Yrotation
                                        End Site
                                        {
                                            OFFSET 1.587538 0.000000 0.000000
                                        }
                                    }
                                }
                            }
                        }
                    }
                }
            }
            JOINT RightShoulder
            {
                OFFSET -3.506990 17.990000 0.023591
                CHANNELS 3 Zrotation Xrotation Yrotation
                JOINT RightArm
                {
                    OFFSET -12.560999 0.000000 0.000000
                    CHANNELS 3 Zrotation Xrotation Yrotation
                    JOINT RightForeArm
                    {
                        OFFSET -22.903299 0.000000 0.000000
                        CHANNELS 3 Zrotation Xrotation Yrotation
                        JOINT RightHand
                        {
                            OFFSET -21.865299 0.000000 0.000000
                            CHANNELS 3 Zrotation Xrotation Yrotation
                            JOINT RightHandThumb1
                            {
                                OFFSET -1.853710 -2.106480 2.949080
                                CHANNELS 3 Zrotation Xrotation Yrotation
                                JOINT RightHandThumb2
                                {
                                    OFFSET -2.049150 0.000000 1.336400
                                    CHANNELS 3 Zrotation Xrotation Yrotation
                                    JOINT RightHandThumb3
                                    {
                                        OFFSET -2.672810 0.000000 0.000000
                                        CHANNELS 3 Zrotation Xrotation Yrotation
                                        End Site
                                        {
                                            OFFSET -2.381310 0.000000 0.000000
                                        }
                                    }
                                }
                            }
                            JOINT RightHandIndex1
                            {
                                OFFSET -7.583340 0.000000 2.949080
                                CHANNELS 3 Zrotation Xrotation Yrotation
                                JOINT RightHandIndex2
                                {
                                    OFFSET -4.454680 0.000000 0.000000
                                    CHANNELS 3 Zrotation Xrotation Yrotation
                                    JOINT RightHandIndex3
                                    {
                                        OFFSET -2.227340 0.000000 0.000000
                                        CHANNELS 3 Zrotation Xrotation Yrotation
                                        End Site
                                        {
                                            OFFSET -1.984424 0.000000 0.000000
                                        }
                                    }
                                }
                            }
                            JOINT RightHandMiddle1
                            {
                                OFFSET -7.583340 0.000000 0.977409
                                CHANNELS 3 Zrotation Xrotation Yrotation
                                JOINT RightHandMiddle2
                                {
                                    OFFSET -4.900150 0.000000 0.000000
                                    CHANNELS 3 Zrotation Xrotation Yrotation
                                    JOINT RightHandMiddle3
                                    {
                                        OFFSET -2.672810 0.000000 0.000000
                                        CHANNELS 3 Zrotation Xrotation Yrotation
                                        End Site
                                        {
                                            OFFSET -2.381310 0.000000 0.000000
                                        }
                                    }
                                }
                            }
                            JOINT RightHandRing1
                            {
                                OFFSET -7.162050 0.000000 -0.977409
                                CHANNELS 3 Zrotation Xrotation Yrotation
                                JOINT RightHandRing2
                                {
                                    OFFSET -4.454680 0.000000 0.000000
                                    CHANNELS 3 Zrotation Xrotation Yrotation
                                    JOINT RightHandRing3
                                    {
                                        OFFSET -2.227340 0.000000 0.000000
                                        CHANNELS 3 Zrotation Xrotation Yrotation
                                        End Site
                                        {
                                            OFFSET -1.984424 0.000000 0.000000
                                        }
                                    }
                                }
                            }
                            JOINT RightHandPinky1
                            {
                                OFFSET -6.740750 0.000000 -2.949080
                                CHANNELS 3 Zrotation Xrotation Yrotation
                                JOINT RightHandPinky2
                                {
                                    OFFSET -3.563750 0.000000 0.000000
                                    CHANNELS 3 Zrotation Xrotation Yrotation
                                    JOINT RightHandPinky3
                                    {
                                        OFFSET -1.781870 0.000000 0.000000
                                        CHANNELS 3 Zrotation Xrotation Yrotation
                                        End Site
                                        {
                                            OFFSET -1.587538 0.000000 0.000000
                                        }
                                    }
                                }
                            }
                        }
                    }
                }
            }
        }
    }
    JOINT LeftUpLeg
    {
        OFFSET 8.909360 0.000000 0.000000
        CHANNELS 3 Zrotation Xrotation Yrotation
        JOINT LeftLeg
        {
            OFFSET -0.000000 -38.765602 0.000000
            CHANNELS 3 Zrotation Xrotation Yrotation
            JOINT LeftFoot
            {
                OFFSET -0.000000 -35.245003 0.000000
                CHANNELS 3 Zrotation Xrotation Yrotation
                JOINT LeftToeBase
                {
                    OFFSET -0.000000 -5.791090 13.364000
                    CHANNELS 3 Zrotation Xrotation Yrotation
                    End Site
                    {
                        OFFSET -0.000000 0.000000 3.563756
                    }
                }
            }
        }
    }
    JOINT RightUpLeg
    {
        OFFSET -8.909360 0.000000 0.000000
        CHANNELS 3 Zrotation Xrotation Yrotation
        JOINT RightLeg
        {
            OFFSET -0.000000 -38.765602 0.000000
            CHANNELS 3 Zrotation Xrotation Yrotation
            JOINT RightFoot
            {
                OFFSET -0.000000 -35.245003 0.000000
                CHANNELS 3 Zrotation Xrotation Yrotation
                JOINT RightToeBase
                {
                    OFFSET -0.000000 -5.791090 13.364000
                    CHANNELS 3 Zrotation Xrotation Yrotation
                    End Site
                    {
                        OFFSET -0.000000 0.000000 3.563756
                    }
                }
            }
        }
    }
}
MOTION
Frames:    5
Frame Time:    0.033333
8.389708    78.025375    114.227425    10.427805    -2.672050    -24.725235    9.141111    13.601093    -5.720691    -37.997982    2.037085    -0.824504    9.188178    -8.398796    11.973263    16.398470    -16.414652    13.219133    -4.046112    -7.394824    -11.065677    -57.419094    -13.709476    -4.033332    69.357063    -63.892128    -34.578705    48.586441    -59.602455    30.056269    -7.485344    12.419509    8.000596    -0.000000    0.000000    12.560490    -0.000000    0.000000    25.120979    -35.266178    18.893023    -24.602814    -78.843849    0.000000    0.000000    -39.421925    0.000000    0.000000    -53.137276    5.335838    -10.510224    -89.125381    0.000000    0.000000    -52.812691    0.000000    0.000000    -67.498505    -11.493264    -1.007869    -99.406914    0.000000    0.000000    -66.203453    0.000000    0.000000    -80.734520    -30.647188    4.753746    -110.000000    0.000000    0.000000    -80.000000    0.000000    0.000000    -22.171000    -9.405444    1.807983    70.758003    68.670715    11.731800    -112.334206    -32.061985    33.982876    -7.590291    -23.913500    -10.842996    4.975193    1.764377    0.380999    0.000000    0.000000    -1.229992    0.000000    0.000000    -2.459985    16.592239    0.000000    -0.000000    33.184479    0.000000    -0.000000    16.592239    0.000000    -0.000000    38.052326    0.000000    -0.000000    58.533596    0.000000    -0.000000    37.516804    0.000000    -0.000000    59.512424    0.000000    -0.000000    83.882721    0.000000    -0.000000    58.441360    0.000000    -0.000000    81.622803    0.000000    -0.000000    110.000000    0.000000    -0.000000    80.000000    0.000000    -0.000000    6.166115    -17.065853    23.554401    -15.684186    46.479416    36.182564    -11.794232    -3.527979    -17.339293    0.373318    -6.825593    -2.025933    -14.196054    -26.066212    19.745817    0.725779    42.080513    -13.608465    17.033541    -17.095606    7.628805    -0.325666    -1.088785    0.405352    
8.986568    78.694305    113.882980    10.168770    -4.183086    -24.914965    7.586598    12.928163    -6.749319    -37.467953    6.697552    0.328745    11.204768    -9.333559    12.337419    14.310981    -17.263943    13.692498    -2.147856    -7.792139    -14.994602    -54.906918    -7.974130    -5.151028    56.826611    -52.433186    -32.343391    34.530273    -56.850811    20.722576    -6.867043    11.453023    7.194675    -0.000000    0.000000    11.240827    -0.000000    0.000000    22.481653    -35.106121    21.854382    -27.902855    -81.195877    0.000000    0.000000    -40.597939    0.000000    0.000000    -54.736225    4.762346    -11.479778    -90.701233    0.000000    0.000000    -53.600620    0.000000    0.000000    -69.467232    -16.246321    -1.176031    -100.206589    0.000000    0.000000    -66.603302    0.000000    0.000000    -83.028717    -39.790787    4.474548    -110.000000    0.000000    0.000000    -80.000000    0.000000    0.000000    -23.255642    -12.848325    3.831228    69.682793    67.927429    12.457024    -104.378174    -17.052988    32.274113    -13.182168    -23.836485    -14.827977    5.604084    2.102068    0.218181    0.000000    0.000000    -1.395580    0.000000    0.000000    -2.791160    16.916758    0.000000    -0.000000    33.833515    0.000000    -0.000000    16.916758    0.000000    -0.000000    38.559162    0.000000    -0.000000    58.968445    0.000000    -0.000000    37.734226    0.000000    -0.000000    60.201553    0.000000    -0.000000    84.103394    0.000000    -0.000000    58.551693    0.000000    -0.000000    82.499794    0.000000    -0.000000    110.000000    0.000000    -0.000000    80.000000    0.000000    -0.000000    8.640036    -15.192936    22.295431    -16.212105    46.589397    35.370724    -12.156187    1.549436    -24.310652    0.443562    -5.105814    -1.905914    -15.222562    -24.014820    18.061581    -0.540386    39.504257    -11.901402    17.038158    -15.299624    8.069849    -0.328914    -1.069554    0.412418    
9.380702    78.761780    113.517212    8.367602    -4.839119    -23.360134    5.821864    13.068336    -7.382312    -33.044544    9.504651    0.602796    12.882737    -8.611364    12.035210    11.466092    -17.877993    13.536644    0.342381    -8.367144    -19.132835    -54.769577    -0.082494    -6.757149    44.395657    -42.884201    -34.037220    21.026791    -53.712353    9.119090    -5.566245    11.511024    8.968757    -0.000000    0.000000    13.227337    -0.000000    0.000000    26.454676    -35.044201    22.001831    -28.109280    -81.232933    0.000000    0.000000    -40.616470    0.000000    0.000000    -55.679646    4.861334    -11.898911    -90.726067    0.000000    0.000000    -53.613033    0.000000    0.000000    -71.496841    -16.307083    -2.200761    -100.219193    0.000000    0.000000    -66.609589    0.000000    0.000000    -86.760658    -39.954895    2.081558    -110.000000    0.000000    0.000000    -80.000000    0.000000    0.000000    -22.742981    -13.794435    4.884668    71.716064    62.544258    10.891026    -93.526924    -4.896479    27.966200    -19.491564    -25.604973    -17.225473    5.530739    2.734476    -0.962869    0.000000    0.000000    -2.737393    0.000000    0.000000    -5.474786    16.660189    0.000000    -0.000000    33.320374    0.000000    -0.000000    16.660189    0.000000    -0.000000    38.499722    0.000000    -0.000000    58.624660    0.000000    -0.000000    37.562328    0.000000    -0.000000    60.339241    0.000000    -0.000000    83.928917    0.000000    -0.000000    58.464458    0.000000    -0.000000    82.840576    0.000000    -0.000000    110.000000    0.000000    -0.000000    80.000000    0.000000    -0.000000    13.188826    -14.119178    21.375242    -16.216366    47.941948    33.950844    -12.131000    1.916882    -24.033649    0.468133    -4.221712    -1.818136    -15.895486    -21.876848    13.953697    0.156591    37.668484    -12.011565    16.851992    -13.954155    9.985677    -0.353328    -1.064451    0.451661    
9.633576    78.236786    113.237747    5.453639    -4.656919    -20.852600    3.008443    13.618673    -7.728827    -24.033995    11.019537    -0.094231    13.579561    -8.113514    11.556088    8.660318    -17.433643    13.014739    3.031850    -8.832835    -23.260462    -58.674614    9.733481    -9.583212    43.387985    -32.642990    -35.168633    10.530147    -51.156494    -4.238276    -3.692108    12.169181    12.342417    -0.000000    0.000000    15.000002    -0.000000    0.000000    30.000000    -36.248611    20.243015    -25.263187    -81.661064    0.000000    0.000000    -40.830532    0.000000    0.000000    -56.732101    3.284685    -10.663957    -91.012909    0.000000    0.000000    -53.756462    0.000000    0.000000    -73.162415    -17.289278    -2.380173    -100.364754    0.000000    0.000000    -66.682381    0.000000    0.000000    -89.999992    -39.999996    0.000000    -110.000000    0.000000    0.000000    -80.000000    0.000000    0.000000    -20.555023    -13.666379    5.480958    73.873474    52.579277    8.672308    -83.624153    -1.319239    21.130566    -23.239584    -28.126625    -19.083616    5.022261    3.339100    -2.379821    0.000000    0.000000    -4.470278    0.000000    0.000000    -8.940556    15.434028    0.000000    -0.000000    30.868055    0.000000    -0.000000    15.434028    0.000000    -0.000000    37.542702    0.000000    -0.000000    56.981594    0.000000    -0.000000    36.740795    0.000000    -0.000000    59.651356    0.000000    -0.000000    83.095139    0.000000    -0.000000    58.047569    0.000000    -0.000000    82.429993    0.000000    -0.000000    110.000000    0.000000    -0.000000    80.000000    0.000000    -0.000000    19.331203    -13.969335    21.781012    -15.579527    49.678291    35.312332    -10.574602    0.795683    -19.539309    0.433404    -4.207489    -1.722453    -15.832625    -20.095095    9.095653    2.298202    36.913273    -13.948774    16.539366    -13.196108    12.970759    -0.384858    -1.090455    0.499126    
9.815898    77.321739    113.162170    1.990810    -3.676565    -18.114170    -0.539090    13.813590    -7.892442    -12.039534    11.777492    -1.404920    12.852881    -7.965940    11.157677    6.127956    -16.548527    12.453561    5.656857    -10.180084    -26.582581    -64.664833    18.424490    -14.816005    49.733444    -21.854305    -37.621174    4.417079    -48.508598    -12.824768    -4.178728    13.108063    13.310464    -0.000000    0.000000    15.000002    -0.000000    0.000000    30.000000    -35.970860    22.396812    -27.698971    -83.119057    0.000000    0.000000    -41.559525    0.000000    0.000000    -57.112217    5.009170    -11.951504    -91.989769    0.000000    0.000000    -54.244888    0.000000    0.000000    -73.555359    -16.334967    -2.987658    -100.860466    0.000000    0.000000    -66.930252    0.000000    0.000000    -89.999992    -39.999996    0.000000    -110.000000    0.000000    0.000000    -80.000000    0.000000    0.000000    -17.662338    -13.099133    5.331174    74.010643    36.948296    7.739570    -80.149300    -3.158814    17.718044    -25.204920    -29.136858    -20.203077    4.587822    3.394138    -2.753663    0.000000    0.000000    -4.911369    0.000000    0.000000    -9.822739    13.366374    0.000000    -0.000000    26.732752    0.000000    -0.000000    13.366374    0.000000    -0.000000    36.136902    0.000000    -0.000000    54.210941    0.000000    -0.000000    35.355473    0.000000    -0.000000    58.907452    0.000000    -0.000000    81.689125    0.000000    -0.000000    57.344566    0.000000    -0.000000    82.367989    0.000000    -0.000000    110.000000    0.000000    -0.000000    80.000000    0.000000    -0.000000    26.373478    -14.186749    24.641081    -13.060766    50.199677    38.098053    -9.285836    3.175552    -19.577263    0.338213    -3.908905    -1.418092    -15.304565    -19.035217    4.528836    5.677015    36.980663    -17.243076    16.144674    -13.069716    16.341150    -0.417128    -1.159453    0.543552    
